Coordinates
version=1
nRows=17
nColumns=17
inDegrees=yes

Units are S.I. units (second, meters, Newtons, ...)
If the header above contains a line with 'inDegrees', this indicates whether rotational values are in degrees (yes) or radians (no).

endheader
time	pelvis_list	pelvis_rotation	pelvis_tilt	pelvis_tx	pelvis_ty	pelvis_tz	hip_adduction_r	hip_rotation_r	hip_flexion_r	hip_adduction_l	hip_rotation_l	hip_flexion_l	knee_flexion_r	knee_flexion_l	ankle_dorsiflexion_r	ankle_dorsiflexion_l
      0.00000000	     -3.92806316	     -5.39117468	     -2.15223866	      0.60985776	      1.00491817	      0.04204420	      4.74057716	      4.01733144	    -11.92634634	      3.43469502	      7.40399378	     26.05838096	    -13.26456911	     -4.85631083	     14.90703251	     -1.80517560
      0.01700000	     -3.80147398	     -5.48429328	     -2.43192226	      0.61032012	      1.00384870	      0.03958965	      4.38234714	      4.28899824	    -11.87875855	      3.28380006	      6.72101197	     26.64044181	    -14.98900633	     -7.03921914	     14.88471722	     -3.21792051
      0.03300000	     -3.64616914	     -5.35221086	     -2.59635638	      0.61171735	      1.00308033	      0.03649467	      4.01366797	      4.39940775	    -12.04545174	      3.02191295	      6.00527832	     27.00327867	    -16.56442299	     -9.11440723	     14.53132258	     -4.52521197
      0.05000000	     -3.57342273	     -5.52153251	     -2.76685502	      0.61319704	      1.00256399	      0.03394617	      3.75330042	      4.82583323	    -11.89347375	      2.87339765	      5.69983130	     27.37647838	    -18.71242229	    -11.38720508	     13.95589901	     -5.39042584
      0.06700000	     -3.51028091	     -5.49598620	     -2.60589798	      0.61565498	      1.00307096	      0.03156959	      3.58532969	      5.01589690	    -11.96841166	      2.83926181	      5.27961640	     27.34672443	    -21.07272784	    -13.78420229	     12.83499523	     -5.68946829
      0.08300000	     -3.42025930	     -5.22452204	     -2.48965934	      0.61836291	      1.00408531	      0.02855609	      3.35451352	      4.85383273	    -11.58122061	      2.77200766	      4.68239495	     27.06854556	    -24.05721800	    -15.70390514	     11.22884849	     -5.69873477
      0.10000000	     -3.26017353	     -5.14263095	     -2.28176793	      0.62118116	      1.00553530	      0.02544482	      2.96311560	      4.66612119	    -10.65655384	      2.56350183	      4.45347148	     26.65541117	    -27.98988533	    -17.75490524	      9.06388614	     -5.11149051
      0.11700000	     -3.14716784	     -4.74024281	     -2.04811317	      0.62378909	      1.00762081	      0.02176004	      2.51668899	      3.85137120	     -9.29137496	      2.36957064	      4.01659105	     25.92528410	    -32.38420983	    -19.22691499	      5.94043165	     -4.38552032
      0.13300000	     -3.02906969	     -4.61364690	     -1.96970409	      0.62576056	      1.00973062	      0.01858182	      1.90199163	      2.93075682	     -7.08835999	      2.10648978	      3.97047380	     25.09454119	    -37.44793469	    -20.25410763	      2.00386981	     -3.45186233
      0.15000000	     -2.83398931	     -4.50860847	     -1.87148423	      0.62699856	      1.01223723	      0.01495114	      1.03890691	      1.64409583	     -4.48190796	      1.67578613	      4.02561168	     23.93465487	    -42.61772247	    -20.62618846	     -2.53270528	     -2.53010897
      0.16700000	     -2.65958264	     -4.11568552	     -1.73991388	      0.62847490	      1.01501830	      0.01131665	      0.13855648	     -0.23521349	     -1.92311658	      1.27868586	      3.81359670	     22.56513214	    -47.27946498	    -20.66514893	     -6.89071099	     -1.53462009
      0.18300000	     -2.29818026	     -4.30417267	     -1.76416703	      0.62794129	      1.01753907	      0.00771936	     -1.05729172	     -1.74975777	      1.17636499	      0.62067595	      4.10305092	     21.23170232	    -51.98606084	    -20.31458484	     -9.87965345	     -0.69075433
      0.20000000	     -1.97693479	     -4.26871227	     -1.72792535	      0.62753154	      1.02001571	      0.00403986	     -2.12381018	     -3.44573834	      4.03057850	      0.03988089	      4.12597658	     19.84931851	    -56.17770990	    -19.99082916	    -10.97937986	      0.19042921
      0.21700000	     -1.74094471	     -4.16268892	     -1.79341058	      0.62649172	      1.02228142	      0.00023067	     -2.93635250	     -5.04299332	      6.90958288	     -0.44046052	      4.03910053	     18.56532127	    -59.94348178	    -19.57819345	    -10.28708432	      0.98216867
      0.23300000	     -1.60050915	     -3.72826124	     -1.68132336	      0.62640594	      1.02516000	     -0.00362044	     -3.45071829	     -6.70406439	      9.20661169	     -0.77154502	      3.64093052	     16.86481793	    -62.83587247	    -18.80598540	     -8.56919852	      1.64673486
      0.25000000	     -1.43414377	     -3.58741594	     -1.58037669	      0.62486525	      1.02782748	     -0.00644230	     -3.69973647	     -7.68403871	     11.66969579	     -1.09638905	      3.52019481	     15.15339851	    -65.29587833	    -17.83672819	     -6.60893724	      2.15250941
      0.26700000	     -1.47812367	     -3.11925776	     -1.56815720	      0.62359175	      1.03008537	     -0.00941389	     -3.52230275	     -8.75856246	     13.95795432	     -1.18609833	      3.13762069	     13.56109196	    -66.88794494	    -16.90044870	     -4.92148590	      2.69655552
